# xmcd CD database file
#
# Track frame offsets:
#	150
#	18635
#	42387
#	67122
#	86465
#	105395
#	125557
#	145990
#	161670
#	184875
#	208255
#	225412
#
# Disc length: 3268 seconds
#
# Revision: 3
# Processed by: cddbd v1.5.1PL0 Copyright (c) Steve Scherf et al.
# Submitted via: CDex 1.51
#
DISCID=aa0cc20c
DTITLE=Various Artist - Banana Republic, Down Shift
DYEAR=2000
DGENRE=Blues
TTITLE0=Amel Larrieux - Get Up
TTITLE1=Lisa Stansfield - Never Gonna Fall
TTITLE2=Al Green - Love Is A Beautiful Thing
TTITLE3=N'Dea Davenport - Bring It On
TTITLE4=Khaleel - No Mercy
TTITLE5=Aretha Franklin - A Rose Is Still A Rose
TTITLE6=Brand New Heavies - Saturday Nite
TTITLE7=Angie Stone - Everyday
TTITLE8=Rahsaan Patterson - Where You Are
TTITLE9=Curtis MayField - Back To Living Again
TTITLE10=Jhelisa - Friendly Pressure
TTITLE11=Faith Evans - Sunny Day
EXTD=YEAR: 2000
EXTT0=
EXTT1=
EXTT2=
EXTT3=
EXTT4=
EXTT5=
EXTT6=
EXTT7=
EXTT8=
EXTT9=
EXTT10=
EXTT11=
PLAYORDER=
